<svg width="128" height="128" viewBox="0 0 128 128" fill="none" xmlns="http://www.w3.org/2000/svg">
  <circle cx="64" cy="64" r="60" fill="#0A0A0A" />
  <path d="M64 18c-11 9-18.7 18.1-23.3 27.6-6.4 12.8-5.4 26.8 3.4 35.6l-9.8 9.8c12.6 4.5 22.7 3 30.3-3.4 7.6 6.4 17.7 7.9 30.3 3.4l-9.8-9.8c8.8-8.8 9.8-22.8 3.4-35.6C82.7 36.1 75 27 64 18z" fill="url(#phoenixCore)" />
  <path d="M52 70c2.4 7.2 7.1 12 12 14 4.9-2 9.6-6.8 12-14-9.4 3.8-16.6 3.8-24 0z" fill="#FFD37D" />
  <defs>
    <linearGradient id="phoenixCore" x1="32" y1="20" x2="96" y2="108" gradientUnits="userSpaceOnUse">
      <stop stop-color="#FF7A18" />
      <stop offset="0.3" stop-color="#B8860B" />
      <stop offset="0.7" stop-color="#009B77" />
      <stop offset="1" stop-color="#0033A0" />
    </linearGradient>
  </defs>
</svg>
